# xmcd
# 
# Track frame offsets:
#     150
#     12185
#     28799
#     49077
#     66552
#     84666
#     98076
#     116912
#     129506
#     146096
# 
# Disc length: 2169
# 
# Revision: 2
# Processed by: cddbd v1.5.2PL0 Copyright (c) Steve Scherf et al.
# Submitted via: fre:ac v1.0.31
# 
DISCID=8e08770a
DTITLE=Christmas - Leann Rimes What a Wonderful World
DYEAR=2004
DGENRE=Christmas
TTITLE0=Rockin' Around the Christmas Tree
TTITLE1=A Different Kind of Christmas
TTITLE2=White Christmas
TTITLE3=All I Want for Christmas
TTITLE4=Have Yourself a Merry Little Christmas
TTITLE5=What a Wonderful World
TTITLE6=The Christmas Song
TTITLE7=Just Love Me
TTITLE8=Miss You Like Christmas
TTITLE9=O Holy Night
EXTD=
EXTT0=
EXTT1=
EXTT2=
EXTT3=
EXTT4=
EXTT5=
EXTT6=
EXTT7=
EXTT8=
EXTT9=
PLAYORDER=
